#!OML:ASF Z:\Project 1\Capture day 1\Session 1\Male1.ASF
:FULLY-SPECIFIED
:DEGREES
750
root 13.1591 16.3623 -4.10025 -165.439 -16.4373 178.253
lowerback -3.81758 -2.72585 0.330146
upperback -0.618968 -3.6985 1.44658
thorax 1.57609 -1.86034 1.10735
lowerneck -9.6314 -2.31419 -2.37313
upperneck -1.02084 -3.14134 4.7186
head 1.45094 -1.55466 1.77364
rclavicle -2.79292e-014 1.27222e-014
rhumerus 81.962 4.44674 -67.6164
rradius 40.8402
rwrist 20.0306
rhand -57.7804 72.8208
rfingers 7.12502
rthumb -30.0364 45.2401
lclavicle -2.79292e-014 1.27222e-014
lhumerus 76.4993 -5.58029 67.2057
lradius 76.2042
lwrist 17.9861
lhand -33.9485 1.48935
lfingers 7.12502
lthumb -7.12987 751.349
rfemur -16.4533 -11.5838 25.9877
rtibia 20.7675
rfoot -20.0178 -10.3528
rtoes 3.53752
lfemur 7.24238 -2.39905 -10.9417
ltibia 16.1141
lfoot 16.9768 20.7429
ltoes 55.3332
751
root 13.1561 16.3646 -4.09806 -165.354 -16.4458 178.242
lowerback -3.8071 -2.74153 0.318135
upperback -0.630074 -3.71877 1.44843
thorax 1.56009 -1.87058 1.11575
lowerneck -9.6333 -2.23004 -2.37972
upperneck -1.43378 -3.04534 4.91447
head 1.3185 -1.51784 1.84251
rclavicle -2.06736e-014 2.78299e-015
rhumerus 81.8962 4.37967 -67.3252
rradius 41.0258
rwrist 19.6153
rhand -58.1261 72.8436
rfingers 7.12502
rthumb -30.3662 45.3232
lclavicle -2.06736e-014 2.78299e-015
lhumerus 76.6468 -5.87684 66.9777
lradius 74.6797
lwrist 18.1916
lhand -33.6955 4.98397
lfingers 7.12502
lthumb -6.88561 754.852
rfemur -16.5971 -11.4798 25.9729
rtibia 20.8893
rfoot -20.0359 -10.4281
rtoes 3.63313
lfemur 7.27323 -2.43661 -10.9832
ltibia 15.8782
lfoot 16.969 20.989
ltoes 55.1259
752
root 13.1524 16.3685 -4.09713 -165.238 -16.5113 178.145
lowerback -3.82659 -2.77579 0.292215
upperback -0.632552 -3.76174 1.40221
thorax 1.56777 -1.89161 1.0797
lowerneck -9.66306 -2.18566 -2.43275
upperneck -1.91657 -3.00177 5.17913
head 1.17333 -1.50977 1.93983
rclavicle -1.30204e-014 -3.97569e-015
rhumerus 81.9385 3.95576 -70.3511
rradius 40.7064
rwrist 26.381
rhand -56.2955 68.1004
rfingers 7.12502
rthumb -28.6186 40.2717
lclavicle -1.30204e-014 -3.97569e-015
lhumerus 76.8302 -6.229 66.7152
lradius 72.9876
lwrist 18.6822
lhand -33.3789 8.67238
lfingers 7.12502
lthumb -6.57996 758.55
rfemur -16.7396 -11.3352 25.8746
rtibia 20.991
rfoot -20.0296 -10.6277
rtoes 4.04637
lfemur 7.25574 -2.29428 -11.0555
ltibia 15.6695
lfoot 17.3156 20.8731
ltoes 56.1165
753
root 13.1513 16.3758 -4.09791 -165.156 -16.5921 178.053
lowerback -3.78305 -2.84702 0.155435
upperback -0.65047 -3.84957 1.39177
thorax 1.53488 -1.93589 1.14333
lowerneck -9.54718 -2.15654 -3.02224
upperneck -2.43528 -2.93617 6.07757
head 1.01787 -1.48291 2.34625
rclavicle 4.80065e-014 -5.56597e-015
rhumerus 81.7911 4.27195 -68.4684
rradius 41.089
rwrist 21.3344
rhand -57.9307 71.1615
rfingers 7.12502
rthumb -30.1798 43.6069
lclavicle 4.80065e-014 -5.56597e-015
lhumerus 76.9732 -6.64626 66.5548
lradius 71.0147
lwrist 19.1815
lhand -32.9117 12.1539
lfingers 7.12502
lthumb -6.12898 762.045
rfemur -16.8386 -11.2181 25.7853
rtibia 21.0766
rfoot -20.1424 -10.5821
rtoes 5.69445
lfemur 7.24817 -2.12684 -11.1023
ltibia 15.509
lfoot 17.6674 20.6248
ltoes 57.4467
754
root 13.1521 16.3807 -4.09821 -165.06 -16.5541 178
lowerback -3.74624 -2.87077 -0.0630034
upperback -0.670891 -3.87208 1.40989
thorax 1.50947 -1.9482 1.28471
lowerneck -10.4761 -1.86748 -2.22158
upperneck -1.7707 -2.6203 5.078
head 1.34074 -1.32028 1.88223
rclavicle -5.06901e-015 1.59028e-015
rhumerus 81.7549 4.223 -68.3041
rradius 41.1741
rwrist 20.3614
rhand -58.1602 71.8348
rfingers 7.12502
rthumb -30.3987 44.3204
lclavicle -5.06901e-015 1.59028e-015
lhumerus 77.2069 -7.05399 66.5793
lradius 69.0615
lwrist 19.2246
lhand -31.1668 18.1908
lfingers 7.12502
lthumb -4.44418 768.124
rfemur -16.9571 -11.0772 25.7212
rtibia 21.1401
rfoot -20.2661 -10.3611
rtoes 7.23125
lfemur 7.21713 -2.05793 -11.1854
ltibia 15.4094
lfoot 17.6484 20.6192
ltoes 56.9537
